<?xml version="1.0" encoding="UTF-8"?>
<svg id="Capa_1" xmlns="http://www.w3.org/2000/svg" version="1.1" xmlns:xlink="http://www.w3.org/1999/xlink" viewBox="0 0 321.93 184.47">
  <!-- Generator: Adobe Illustrator 29.4.0, SVG Export Plug-In . SVG Version: 2.1.0 Build 152)  -->
  <defs>
    <style>
      .st0 {
        fill: url(#linear-gradient2);
      }

      .st1 {
        fill: url(#New_Gradient_Swatch_21);
      }

      .st2 {
        fill: #fff;
      }

      .st3 {
        fill: url(#linear-gradient1);
      }

      .st4 {
        fill: none;
      }

      .st5 {
        fill: url(#radial-gradient);
      }

      .st6 {
        fill: url(#New_Gradient_Swatch_3);
      }

      .st7 {
        fill: url(#New_Gradient_Swatch_33);
      }

      .st8 {
        fill: url(#New_Gradient_Swatch_2);
      }

      .st9 {
        fill: url(#New_Gradient_Swatch_32);
      }

      .st10 {
        fill: url(#linear-gradient3);
      }

      .st11 {
        fill: url(#New_Gradient_Swatch_31);
      }

      .st12 {
        fill: #bdc0c7;
      }

      .st13 {
        fill: url(#linear-gradient);
      }
    </style>
    <linearGradient id="New_Gradient_Swatch_3" data-name="New Gradient Swatch 3" x1="101.44" y1="68.55" x2="6.22" y2="68.55" gradientUnits="userSpaceOnUse">
      <stop offset=".28" stop-color="#fff"/>
      <stop offset="1" stop-color="#bdc0c7"/>
    </linearGradient>
    <linearGradient id="New_Gradient_Swatch_31" data-name="New Gradient Swatch 3" x1="54.93" y1="68.55" x2="-39.49" y2="68.55" gradientTransform="translate(276.15) rotate(-180) scale(1 -1)" xlink:href="#New_Gradient_Swatch_3"/>
    <linearGradient id="New_Gradient_Swatch_32" data-name="New Gradient Swatch 3" x1="100.53" y1="-50.1" x2="5.3" y2="-50.1" gradientTransform="translate(0 80.57) scale(1 -1)" xlink:href="#New_Gradient_Swatch_3"/>
    <linearGradient id="New_Gradient_Swatch_33" data-name="New Gradient Swatch 3" x1="54.03" y1="-50.1" x2="-40.4" y2="-50.1" gradientTransform="translate(276.15 80.57) rotate(-180)" xlink:href="#New_Gradient_Swatch_3"/>
    <linearGradient id="linear-gradient" x1="80.22" y1="97.39" x2="245.71" y2="97.39" gradientUnits="userSpaceOnUse">
      <stop offset="0" stop-color="#005c7b"/>
      <stop offset="1" stop-color="#00759a"/>
    </linearGradient>
    <linearGradient id="linear-gradient1" x1="161.33" y1="28.47" x2="161.33" y2="174.5" xlink:href="#linear-gradient"/>
    <linearGradient id="New_Gradient_Swatch_2" data-name="New Gradient Swatch 2" x1="138.98" y1="-15.76" x2="207.36" y2="-15.76" gradientTransform="translate(16.53 4.41) rotate(9.76)" gradientUnits="userSpaceOnUse">
      <stop offset="0" stop-color="#c8d320"/>
      <stop offset=".17" stop-color="#c0cf22"/>
      <stop offset=".43" stop-color="#acc62a"/>
      <stop offset=".56" stop-color="#9fc02f"/>
      <stop offset="1" stop-color="#7db236"/>
    </linearGradient>
    <radialGradient id="radial-gradient" cx="143.91" cy="12.46" fx="143.91" fy="12.46" r="48.18" gradientTransform="translate(16.53 4.41) rotate(9.76)" gradientUnits="userSpaceOnUse">
      <stop offset="0" stop-color="#7db236"/>
      <stop offset="1" stop-color="#00662f"/>
    </radialGradient>
    <linearGradient id="New_Gradient_Swatch_21" data-name="New Gradient Swatch 2" x1="60.03" y1="3.91" y2="3.91" xlink:href="#New_Gradient_Swatch_2"/>
    <linearGradient id="linear-gradient2" x1="160.93" y1="68.66" x2="160.93" y2="131.51" xlink:href="#linear-gradient"/>
    <linearGradient id="linear-gradient3" x1="161.79" y1="79.37" x2="161.79" y2="120.46" gradientUnits="userSpaceOnUse">
      <stop offset=".4" stop-color="#fff"/>
      <stop offset=".53" stop-color="#f7f8f8"/>
      <stop offset=".73" stop-color="#e3e4e7"/>
      <stop offset=".97" stop-color="#c2c5cb"/>
      <stop offset="1" stop-color="#bdc0c7"/>
    </linearGradient>
  </defs>
  <path class="st6" d="M6.22,69.57s7.3-18.09,72.7-24.58c63.78-6.32-28.13,47.65-28.13,47.65L6.22,69.57Z"/>
  <path class="st11" d="M315.63,69.57s-7.24-18.09-72.08-24.58c-63.24-6.32,27.89,47.65,27.89,47.65l44.19-23.07Z"/>
  <path class="st9" d="M5.3,129.79s7.3,15.67,72.7,21.29c63.78,5.48-28.13-41.27-28.13-41.27l-44.57,19.98Z"/>
  <path class="st7" d="M316.54,129.79s-7.24,15.67-72.09,21.29c-63.24,5.48,27.89-41.27,27.89-41.27l44.2,19.98Z"/>
  <path class="st13" d="M245.71,97.39c0,29.47-37.05,53.37-82.75,53.37s-82.74-23.89-82.74-53.37,37.05-53.37,82.74-53.37,82.75,23.89,82.75,53.37Z"/>
  <path class="st12" d="M102.33,56.67c-16.59,10.63-25.73,24.98-25.73,40.4s9.14,29.77,25.73,40.4c15.97,10.23,37.11,15.87,59.52,15.87s43.56-5.64,59.52-15.87c16.59-10.64,25.73-24.98,25.73-40.4s-9.14-29.77-25.73-40.4c-15.97-10.24-37.11-15.87-59.52-15.87s-43.56,5.63-59.52,15.87ZM85.68,97.07c0-26.02,34.17-47.2,76.18-47.2s76.18,21.17,76.18,47.2-34.17,47.19-76.18,47.19-76.18-21.17-76.18-47.19Z"/>
  <path class="st12" d="M222.92,27.38c-.05-.02-.11-.04-.16-.06,0,0,0,0,0,0l.16.06Z"/>
  <path class="st12" d="M247.97,39.76c-7.58-4.86-15.99-8.98-24.99-12.36-.11.18-1.36,3.75-5.32,7.69,34.64,12.29,58.08,35.59,58.08,62.27,0,39.43-51.19,71.51-114.11,71.51s-114.12-32.08-114.12-71.51c0-30.47,30.57-56.53,73.49-66.81-6.97-2.92-9.73-5.1-10.8-6.46-12.79,3.83-24.62,9.07-34.92,15.68-23.76,15.23-36.84,35.68-36.84,57.6s13.08,42.37,36.84,57.6c23.13,14.83,53.8,22.99,86.35,22.99s63.21-8.16,86.35-22.99c23.76-15.23,36.84-35.68,36.84-57.6s-13.08-42.37-36.84-57.6Z"/>
  <path class="st3" d="M220.78,31.76c-3.79,5.97-13.55,15.25-37.83,13.89-6.19-.24-13.32-1.2-21.5-3.11-27.58-6.46-40.54-11.51-46.61-14.93-42.42,11.59-72.16,38.56-72.16,69.98,0,42,53.12,76.05,118.65,76.05s118.65-34.05,118.65-76.05c0-28.11-23.81-52.66-59.2-65.83ZM161.57,149.03c-44.58,0-80.72-23.16-80.72-51.74s36.14-51.73,80.72-51.73,80.71,23.16,80.71,51.73-36.14,51.74-80.71,51.74Z"/>
  <path class="st2" d="M221.07,30.94c-.31.47-.67.98-1.08,1.51,35.28,12.99,59.08,37.32,59.08,65.14,0,41.43-52.82,75.14-117.74,75.14s-117.75-33.71-117.75-75.14c0-31.19,29.93-58,72.42-69.35-.85-.44-1.58-.86-2.23-1.25-42.33,11.86-72.01,39.04-72.01,70.6,0,42.43,53.64,76.96,119.56,76.96s119.56-34.52,119.56-76.96c0-28.44-24.09-53.32-59.82-66.64Z"/>
  <path class="st4" d="M209.07,92.41c-.49-.03-.92-.24-1-.25-.41-.02-1.99,1.49-3.37,2.87-.97.97-1.95,1.98-2.95,2.95,3.26-.51,4.89-.77,8.15-1.32.08-1.79.03-2.99-.12-3.58-.12-.43-.35-.65-.71-.67Z"/>
  <path class="st4" d="M238.34,94.54c2.15-.78,3.72-1.67,4.72-2.66-.15-.14-.23-.21-.38-.36-1.48.05-2.21.08-3.69.13-1.22.01-3.08.33-5.57.91-3.43.81-5.15,1.69-5.15,2.69v.64c1.56-.01,2.34-.02,3.91-.03,1.97-.12,4.02-.55,6.17-1.33Z"/>
  <path class="st4" d="M247.42,101.75c-.91-.73-1.63-1.22-2.16-1.43-1.28-.49-3.67-.76-7.19-.8-1.72-.02-3.08.08-4.09.3-1.01.22-2.01.45-2.93.61-.75.13-1.55.22-2.28.34-.88.15-1.57.34-1.96.56-.57.32-1.1,1.01-1.56,1.93-.46.93-.63,2.05-.52,2.13.84.56,5.78-.77,7.77-.69,1.77.08,2.66.39,2.66.93,0,.37-.52.87-1.54,1.36-.53.26-1.66.76-1.66.76.05.19,17.24-1.93,17.24-3.69,0-.6-.62-1.37-1.79-2.31Z"/>
  <path class="st4" d="M62.54,88.18c-1.77.05-3.44,2.11-5.02,6.35-1.32,3.55-1.99,6.34-1.99,8.23,0,.23.01.45.03.66,0,.03.02.06.02.09,0,.01-.01.03-.01.05.06.8.23,1.54.46,2.19.6,1.66,1.65,2.47,3.2,2.36,2.13-.15,4.04-1.72,5.69-4.59,1.33-2.31,1.99-5.65,1.99-5.65,0,0,.1-.52.31-1.64.21-1.12.32-2.11.32-2.97,0-3.5-1.67-5.19-4.98-5.1Z"/>
  <path class="st2" d="M79.95,97.29c0,29.03,36.61,52.64,81.62,52.64s81.62-23.61,81.62-52.64-36.62-52.64-81.62-52.64-81.62,23.61-81.62,52.64ZM81.76,97.29c0-28.02,35.8-50.82,79.81-50.82s79.81,22.8,79.81,50.82-35.8,50.83-79.81,50.83-79.81-22.8-79.81-50.83Z"/>
  <path class="st8" d="M156.55,10.2c27.41,25.32,55.71,20.76,66.43,17.2-4.52-5.04-29.95-30.17-66.43-17.2Z"/>
  <path class="st5" d="M89.5,54.78s18.63-15.34,54.47,4.66c30.65,17.1,61.23,11.57,79.01-32.04,0,0-13.06,29.11-63.47,4.8-38.42-18.52-70.01,22.58-70.01,22.58Z"/>
  <path class="st1" d="M222.98,27.4s-14.61,30.21-67.07,2.77c-52.47-27.44-82.96.36-82.96.36,0,0,33.43-13.06,83.61,14.12,50.18,27.18,66.43-17.25,66.43-17.25Z"/>
  <path class="st2" d="M314.85,66.69c-.71.08-71.64,8.24-153.56,7.64-81.96-.6-153.52-7.58-154.23-7.64-.51-.05-1.02.12-1.4.46-.38.35-.6.83-.6,1.34v62.86c0,.54.24,1.05.65,1.39.41.34.96.49,1.48.4.54-.1,55.33-9.62,153.46-9.02,98.17.6,153.58,8.94,154.13,9.02.53.08,1.06-.07,1.46-.42.4-.35.63-.85.63-1.38v-62.86c0-.52-.22-1.01-.61-1.36-.39-.34-.9-.51-1.42-.45ZM8.69,70.49c12.14,1.13,78.07,6.93,152.57,7.47,74.45.55,139.84-6.12,151.98-7.44v58.73c-10.89-1.49-64.63-8.23-152.57-8.77-87.79-.54-141.04,7.01-151.98,8.72v-58.73Z"/>
  <path class="st0" d="M315.02,131.51s-54.92-8.43-154.4-9.04c-99.47-.61-153.79,9.04-153.79,9.04v-62.86s71.4,7.04,154.39,7.65c83,.61,153.79-7.65,153.79-7.65v62.86Z"/>
  <path class="st10" d="M66.69,115.24c-.08-.01-.16-.02-.22-.04-.53-.09-.8-.14-1.34-.23-1.74-.48-2.6-2.13-2.6-4.95v-19.99c0-2.58.39-4.24,1.16-4.97.2-.19.81-.46,1.83-.79.8-.26,1.21-.59,1.21-1.01,0-.63-.38-.99-1.07-.99-.17,0-.35.01-.5.02-2.4.1-5.19.06-8.33-.11-1.37-.07-2.79-.25-4.26-.54-.36-.07-.59-.11-.67-.11-.84-.05-1.26.29-1.26,1.02,0,.36.13.68.35.81.42.23,1,.33,1.36.42,1.4.37,2.32.8,2.65,1.06.69.55,1.12,1.41,1.31,2.55.08.47.12,1.44.12,2.92v20.03c0,2.53-.63,4.25-1.78,4.85-.32.16-.72.37-1.12.61-.71.43-1.15.69-1.21.77-.17.21-.27.49-.27.82,0,.61.41.89,1.24.84.74-.04,1.87-.18,3.38-.41,1.51-.23,2.65-.36,3.41-.4.79-.04,1.97-.03,3.54.04,1.57.07,2.74.08,3.52.04.94-.04,1.41-.43,1.41-1.15,0-.58-.65-.93-1.88-1.1ZM51.46,114.76c-.15,0-.37.03-.66.08-.29.05-.51.07-.66.08-1.24.06-2.46-1.03-3.67-3.3-2.05-3.86-3.08-5.83-5.13-9.82-.61-1.2-1.76-2.2-1.76-2.25,0,0,6.59-4.36,6.59-8.49,0-3.45-1.19-6.07-3.57-7.92-2.04-1.59-4.81-2.52-8.3-2.75-1.04-.07-2.6-.09-4.67-.06-2.07.03-3.63.01-4.67-.06-1.73-.12-3.61-.37-5.62-.74-.51-.09-.83-.15-.97-.16-.86-.06-1.29.29-1.29,1.07,0,.66.5,1.13,1.49,1.38.02,0,.03,0,.05,0,.03.02.08.03.12.04,1,.17,1.87.76,2.35,1.33.84,1,1.26,2.99,1.26,5.97v22.43c0,2.65-.69,4.53-2.03,5.52-.4.29-.74.5-.94.63-.65.41-1.04.73-1.14.87-.17.24-.25.55-.25.92,0,.68.4.99,1.21.93.76-.06,1.92-.23,3.47-.51,1.55-.28,2.72-.44,3.49-.5.68-.05,1.69-.03,3.05.04,1.35.07,2.37.08,3.05.04.81-.06,1.21-.49,1.21-1.29,0-.61-.82-.87-1.44-1.2-.01,0-.03-.02-.05-.02-.02,0-.06,0-.13-.02-.51-.11-.88-.23-1.11-.34-1.5-.74-2.25-2.57-2.25-5.47,0-3.29,0-4.94,0-8.23,0-.8.18-1.37.52-1.64.28-.22.84-.33,1.61-.33,1.82,0,3.06.3,3.72.93.56.53,1.75,2.83,3.52,6.78.13.3.22.51.27.62,1.21,2.78,2.39,4.8,3.27,5.97,1.68,2.25,3.47,3.29,5.35,3.18.98-.06,2.05-.33,3.2-.82,1.47-.63,2.21-1.36,2.21-2.17,0-.49-.24-.72-.72-.7ZM37.94,97.35c-1.12.8-2.92,1.2-5.4,1.19-1.52,0-2.45-.08-2.8-.23-.74-.31-1.11-1.13-1.11-2.46v-9.02c0-1.58.17-2.67.5-3.25.43-.77,1.3-1.12,2.6-1.04,2.63.16,4.68,1.13,6.14,2.87,1.42,1.7,2.13,3.95,2.13,6.75,0,2.47-.69,4.2-2.06,5.19ZM166.16,112.21c-.15,0-.37.01-.66.04-.29.03-.51.04-.66.04-1.24,0-2.46-.94-3.67-2.83-2.05-3.21-3.08-4.82-5.13-8.03-.61-.97-1.76-1.77-1.76-1.81,0,0,6.6-3.55,6.6-6.92,0-2.81-1.19-4.91-3.57-6.3-2.05-1.19-4.82-1.8-8.31-1.82-1.04,0-2.6.05-4.68.16-2.07.12-3.63.17-4.67.15-1.73-.02-3.61-.13-5.63-.33-.51-.05-.84-.08-.97-.08-.86-.01-1.29.27-1.29.85,0,.5.5.82,1.49.98.02,0,.03,0,.05,0,.03.01.08.02.12.02,1.01.1,1.88.51,2.36.92.84.73,1.27,2.22,1.27,4.49v17.02c0,2.01-.69,3.42-2.04,4.11-.4.21-.73.34-.94.43-.65.28-1.04.51-1.14.61-.17.17-.25.4-.25.68,0,.51.4.76,1.22.75.76-.01,1.92-.09,3.47-.24,1.55-.15,2.72-.22,3.5-.23.68,0,1.69.05,3.05.16,1.35.11,2.37.17,3.05.16.81,0,1.22-.33,1.22-.95,0-.48-.77-.68-1.44-1-.01,0-.03-.02-.05-.02s-.06,0-.12-.02c-.51-.11-.88-.21-1.12-.31-1.5-.63-2.25-2.07-2.25-4.31v-6.35c0-.62.18-1.06.52-1.27.28-.17.83-.25,1.61-.25,1.82,0,3.06.24,3.72.73.56.42,1.75,2.23,3.52,5.4.13.24.22.41.27.51,1.21,2.24,2.4,3.89,3.27,4.86,1.68,1.87,3.47,2.81,5.36,2.8.97,0,2.05-.17,3.2-.52,1.47-.45,2.21-1.02,2.21-1.69,0-.41-.24-.61-.72-.61ZM152.62,97.88c-1.12.65-2.93.96-5.41.96-1.52,0-2.45-.06-2.8-.17-.74-.24-1.12-.87-1.12-1.9v-6.96c0-1.22.17-2.07.5-2.53.43-.61,1.3-.92,2.6-.91,2.63.02,4.69.69,6.15,2.03,1.42,1.3,2.13,3.08,2.13,5.32,0,1.97-.69,3.37-2.06,4.16ZM300.44,83.65c-3.48-2.53-8.2-3.51-14.14-3.12-.83.05-2.12.19-3.84.43-.21.03-.37.05-.45.06-2.69.28-4.88.63-6.27.71-.58.03-1.45.03-2.61-.01-1.16-.04-2.04-.05-2.62-.02-.97.05-1.46.44-1.46,1.16,0,.47.47.81,1.41,1.01,1.33.29,2.03.45,2.08.48.9.53,1.58,1.24,1.88,2.18.19.6.3,1.62.3,3.05v21.55c0,1.21-.15,2.17-.45,2.87-.32.75-.83,1.28-1.51,1.58-.37.17-.55.25-.92.41-.01,0-.02,0-.03,0-.69.3-1.13.63-1.31.99-.14-.44-.66-.74-1.1-1.04-.02-.01-.03-.03-.04-.03-.01,0-.05,0-.11-.03-.25-.08-.45-.15-.59-.2-1.28-.51-2.3-1.66-3.02-3.4-4.23-9.93-8.55-19.81-12.96-29.67-.25-.56-.57-.84-.97-.82-.33.02-.59.24-.79.68-4.15,9.16-8.42,18.26-12.79,27.31-1.11,2.31-2.16,3.74-3.15,4.29-.18.1-.52.24-1.01.4-.75.25-1.12.59-1.12,1.01,0,.62.37.95,1.12.98.59-.05.89-.08,1.49-.13.97-.08,1.95-.11,2.92-.07.74.03,1.84.15,3.3.36,1.45.22,2.54.34,3.25.37.78.03,1.17-.29,1.17-.96,0-.49-.69-.98-1.79-1.12-.12-.02-.22-.04-.25-.06-1.5-.82-3.49-1.44-3.49-2.82,0-.39.13-.92.39-1.61.55-1.43.83-2.15,1.39-3.6.36-.93.85-1.54,1.44-1.78.42-.17,1.26-.24,2.5-.23,2.86.04,4.29.06,7.15.09,1.09.02,1.85.14,2.27.39.42.25.83.84,1.23,1.79.57,1.35.86,2.03,1.44,3.38.34.78.51,1.52.51,2.19,0,1.24-.78,2.12-2.35,2.63-.06.02-.09.04-.15.07-.76.33-1.14.66-1.14.98,0,.69.27,1.04.82,1.07.13,0,.37,0,.72-.03,2-.15,3.91-.18,5.73-.09.79.04,1.98.18,3.56.41,1.59.23,2.78.38,3.57.42.43.02.7-.13.83-.45.12.5.5.81,1.06.79.15,0,.31-.04.42-.05,2.17-.22,4.71-.29,7.55-.12.73.04,1.83.16,3.3.36,1.47.2,2.57.32,3.29.37,5.79.37,10.64-1.24,14.49-5.12,3.93-3.96,5.9-9.39,5.9-16.01s-2.01-11.32-6.04-14.25ZM253.01,102.48c-2.34-.02-3.51-.02-5.85-.04-1.52,0-2.28-.26-2.28-.74,0-.28.12-.68.35-1.19,1.52-3.39,2.29-5.1,3.81-8.55.21-.48.47-.72.76-.73.23,0,.48.29.74.89,1.44,3.28,2.16,4.93,3.6,8.27.31.69.47,1.18.47,1.46,0,.43-.54.64-1.61.63ZM296.7,112.21c-2.43,3.19-5.79,4.6-10.08,4.36-2.45-.14-4.08-.88-4.86-2.2-.6-1.01-.89-2.93-.89-5.75v-20.32c0-2.05.32-3.41.97-4.07.64-.67,1.95-1.06,3.91-1.17,4.46-.25,8.01,1.28,10.65,4.73,2.46,3.21,3.69,7.43,3.69,12.55s-1.13,8.91-3.39,11.87ZM131.53,107.29c-.16,0-.68.46-1.51,1.38-.94,1.04-1.51,1.64-1.69,1.77-2.33,1.69-5.34,2.62-9.03,2.69-1.79.03-2.95-.24-3.45-.8-.41-.47-.62-1.56-.62-3.23v-6.94c0-.92.1-1.54.3-1.85.28-.43.91-.65,1.83-.65.79,0,1.19,0,1.99,0,1.39,0,2.42.13,3.1.37.94.33,1.62.98,2.03,1.93.13.3.25.74.35,1.33.13.77.47,1.16,1.02,1.16.58,0,.87-.28.87-.84,0-.11-.02-.37-.07-.77-.21-1.73-.32-3.37-.32-4.93,0-1.07.07-2.06.15-2.93.02-.21.04-.36.05-.41.07-.52-.27-.92-.82-.93-.51,0-.98.42-1.41,1.26-.29.57-.56.99-.77,1.24-.85,1-2.36,1.5-4.46,1.49-.65,0-.98,0-1.64,0-1.45,0-2.18-.63-2.18-1.88v-6.96c0-1.06.41-1.77,1.21-2.13.58-.26,1.55-.38,2.9-.35,2.1.04,3.68.17,4.73.39,1.88.39,3.14,1.14,3.75,2.24.18.33.31.84.38,1.52.07.68.39,1.03.93,1.03.55,0,.82-.29.82-.87v-.45c-.02-1.37-.05-2.48-.05-3.29v-.92c0-.7-.14-1.16-.4-1.34-.22-.15-.78-.23-1.64-.24-2.1.04-3.16.06-5.26.1-3.19.05-6.23.04-9.13-.03-2.74-.07-5.46-.23-8.08-.55-.3-.03-.53-.06-.7-.06-.45-.01-.78.06-1,.22-.16-.17-.41-.26-.77-.27-.26,0-.61.04-.99.09-.11.01-.25.02-.4.03-1.23.1-2.2.19-2.83.17-.96-.03-2.29-.11-3.77-.39-.07-.01-.16-.04-.25-.05-.21-.02-.58-.04-1.03-.1-.45-.06-.8-.09-1.03-.1-.76-.03-1.14.27-1.14.89,0,.47.52.82,1.56,1.03.46.09.77.16.92.21,1.78.55,2.75,1.66,2.75,3.41,0,1.14-.31,2.34-.94,3.62-2.9,5.9-4.35,8.89-7.26,14.99-.23.48-.47.72-.72.72-.25,0-.5-.29-.77-.89-3-6.65-4.5-10.02-7.51-16.92-.52-1.17-.79-2.09-.79-2.74,0-1.2.62-2.03,1.86-2.52.19-.07.28-.1.47-.17.89-.32,1.34-.69,1.34-1.13,0-.6-.31-.91-.92-.94-.08,0-.21,0-.39.02-.17.02-.31.02-.38.03-1.54.05-3.51.21-5.58.12-1.88-.08-3.64-.26-5.26-.52-.94-.16-1.59-.24-1.96-.26-.71-.03-1.06.25-1.06.84,0,.55.5,1.01,1.49,1.35.38.13.65.23.82.3,1.08.45,2,1.5,2.73,3.14,4.25,9.57,8.54,19.12,12.99,28.6.25.53.57.78.97.77.31-.01.58-.23.79-.65,4.47-9.42,8.98-18.82,13.64-28.16.36-.72.73-1.34,1.09-1.84.34-.47.74-.79,1.19-.95.46-.17.79-.36,1.01-.58.24.26.67.45,1.35.58.02,0,.03,0,.05,0,1.27.18,2.21.52,2.8,1.02.91.76,1.36,2.32,1.36,4.67,0,7.06,0,10.58,0,17.64,0,2.08-.69,3.55-2.03,4.29-.4.22-.73.37-.94.46-.65.3-1.04.54-1.14.65-.17.18-.25.42-.25.71,0,.53.41.79,1.21.76,1.11-.11,1.67-.17,2.78-.28,1.78-.18,3.54-.29,5.26-.33,1.06-.03,2.64,0,4.75.09,2.11.08,3.69.12,4.75.09,3.11-.06,5.33-.92,6.67-2.57,1.34-1.65,2.01-3.25,2.01-4.82,0-.58-.24-.87-.72-.87ZM232.4,107.79c-.17,0-.68.48-1.51,1.43-.94,1.07-1.51,1.69-1.69,1.82-2.33,1.71-5.34,2.54-9.02,2.44-1.79-.05-2.95-.37-3.45-.97-.41-.5-.62-1.61-.62-3.3v-7.03c0-.92.1-1.56.3-1.87.28-.44.91-.66,1.83-.66h1.98c1.39,0,2.42.13,3.1.38.94.35,1.62,1.02,2.03,2.02.13.31.25.78.35,1.39.13.81.47,1.22,1.02,1.22.58,0,.87-.29.87-.87,0-.12-.02-.39-.07-.81-.22-1.82-.32-3.54-.32-5.18,0-1.13.07-2.17.15-3.09.02-.22.04-.38.05-.43.08-.55-.28-.96-.82-.96-.51,0-.98.46-1.41,1.34-.29.6-.55,1.04-.77,1.31-.85,1.05-2.36,1.58-4.46,1.58-.65,0-.98,0-1.64,0-1.45,0-2.18-.62-2.18-1.88v-7.05c0-1.07.41-1.81,1.21-2.21.58-.29,1.55-.46,2.9-.49,2.1-.05,3.68,0,4.73.18,1.89.32,3.13,1.05,3.74,2.19.18.34.31.87.38,1.6.08.72.39,1.08.93,1.07.55,0,.82-.33.82-.95v-.48c-.02-1.46-.05-2.64-.05-3.49v-.98c0-.75-.14-1.23-.4-1.4-.22-.15-.78-.2-1.63-.17-2.1.15-3.15.23-5.26.38-3.19.22-6.23.37-9.13.44-2.74.07-5.46.05-8.08-.13-.3-.02-.53-.03-.69-.03-.57.01-.93.17-1.13.43-.14-.26-.42-.4-.86-.39-.08,0-.41.03-.99.1-2.15.24-4.23.37-6.22.41-.73.01-1.82-.03-3.27-.13-1.45-.1-2.55-.14-3.27-.13-.88.01-1.31.32-1.31.93,0,.48.52.79,1.56.93h.05c1.24.13,2.16.42,2.75.88.95.73,1.44,2.22,1.44,4.49v4.51c0,.15-.04.26-.06.38v.23h-17.25v-4.14h.03v-1.67c0-1.22.1-2.08.3-2.58.35-.88,1.19-1.55,2.53-2.01.08-.03.14-.05.17-.07.75-.3,1.16-.61,1.16-.96,0-.55-.32-.82-.96-.81-.08,0-.41.03-.99.08-2.13.21-4.21.32-6.22.33-.74,0-1.85-.05-3.31-.16-1.46-.11-2.56-.17-3.29-.17-.88,0-1.31.3-1.31.9,0,.48.52.79,1.56.94h.05c1.27.14,2.21.43,2.8.89.91.71,1.36,2.19,1.36,4.43v16.87c0,1.99-.69,3.38-2.03,4.05-.4.2-.73.33-.94.42-.65.27-1.04.49-1.14.59-.17.16-.25.39-.25.67,0,.5.41.76,1.21.76.78,0,1.94-.06,3.48-.18,1.55-.12,2.71-.17,3.48-.17.79,0,1.98.08,3.55.22,1.57.14,2.75.22,3.52.22.84,0,1.26-.29,1.26-.89,0-.56-.68-1.01-1.84-1.1-.03,0-.08-.01-.15-.02-.59-.12-1.03-.23-1.32-.33-1.8-.65-2.7-2.09-2.7-4.34v-4.62h-.03v-3.38h17.25v.31c.03.12.06.24.06.38v7.56c0,2.02-.7,3.42-2.06,4.09-.4.2-.73.33-.94.41-.65.27-1.04.48-1.14.58-.17.17-.25.39-.25.68,0,.51.41.77,1.24.78.76.01,1.91-.03,3.46-.14,1.55-.1,2.71-.14,3.49-.13.73.01,1.81.1,3.26.25,1.44.16,2.52.25,3.24.26.6.01.97-.16,1.13-.51.12.35.5.54,1.16.56,1.11-.05,1.67-.08,2.78-.13,1.79-.09,3.54-.11,5.26-.06,1.06.03,2.64.14,4.75.33,2.11.2,3.69.31,4.75.35,3.11.1,5.33-.68,6.67-2.38,1.34-1.7,2.01-3.39,2.01-5.07,0-.62-.24-.94-.72-.95ZM210.07,109.03c0,2.06-.69,3.5-2.03,4.17-.4.2-.74.33-.94.42-.65.27-1.04.48-1.14.58-.08.07-.13.17-.17.26-.17-.35-.74-.59-1.48-.84-.03,0-.07-.02-.1-.02-.59-.07-1.09-.26-1.34-.37-1.63-.7-2.45-2.2-2.45-4.45v-17.55c0-1.15.04-1.93.12-2.34.17-.83.61-1.51,1.27-2.04.33-.26.82-.5,1.39-.74.1-.04.18-.07.22-.09.53-.2.87-.39.99-.5,0,0,.01-.02.02-.03.21.28.68.48,1.43.57h.05c1.27.12,2.21.41,2.8.88.91.72,1.36,2.25,1.36,4.58v17.51Z"/>
  <g>
    <path class="st2" d="M150.95,140.4c23.85,2.82-5.2,20.7-23.93,30.91,7.24,1.47,29.53,5.21,56.88,1.85,9.9-12.64,23.09-34.05-2.01-34.45-35.4-.56-11.43-14.67-11.43-14.67,0,0-52.96,12.41-19.51,16.36Z"/>
    <path class="st12" d="M186.92,141.52s16.72,3.07-7.25,32.61c0,0,16.17-22.02,7.25-32.61Z"/>
    <path class="st12" d="M154.59,138.18s24.25,4.18-6.41,23.97c0,0,36.79-19.51,6.41-23.97Z"/>
    <path class="st12" d="M172.47,145.34s14.72,13.52-27.62,27.92c0,0,32.18-12.33,27.62-27.92Z"/>
    <path class="st12" d="M160.83,128.64s-25.99,7.69-7.81,8.28c0,0-11.19-1.75,7.81-8.28Z"/>
  </g>
</svg>