<?xml version="1.0" encoding="UTF-8"?>
<svg id="Capa_1" xmlns="http://www.w3.org/2000/svg" version="1.1" xmlns:xlink="http://www.w3.org/1999/xlink" viewBox="0 0 321.93 90.28">
  <!-- Generator: Adobe Illustrator 29.4.0, SVG Export Plug-In . SVG Version: 2.1.0 Build 152)  -->
  <defs>
    <style>
      .st0 {
        fill: url(#Degradado_sin_nombre_11);
      }

      .st1 {
        fill: url(#Degradado_sin_nombre_10);
      }
    </style>
    <linearGradient id="Degradado_sin_nombre_10" data-name="Degradado sin nombre 10" x1="160.96" y1="78.1" x2="160.96" y2="15.24" gradientTransform="translate(0 91.81) scale(1 -1)" gradientUnits="userSpaceOnUse">
      <stop offset="0" stop-color="#005c7b"/>
      <stop offset="1" stop-color="#00759a"/>
    </linearGradient>
    <linearGradient id="Degradado_sin_nombre_11" data-name="Degradado sin nombre 11" x1="161.82" y1="67.39" x2="161.82" y2="26.28" gradientTransform="translate(0 91.81) scale(1 -1)" gradientUnits="userSpaceOnUse">
      <stop offset=".4" stop-color="#fff"/>
      <stop offset=".53" stop-color="#f7f8f8"/>
      <stop offset=".73" stop-color="#e3e4e7"/>
      <stop offset=".97" stop-color="#c2c5cb"/>
      <stop offset="1" stop-color="#bdc0c7"/>
    </linearGradient>
  </defs>
  <path class="st1" d="M315.06,76.57s-54.92-8.43-154.4-9.04c-99.47-.61-153.79,9.04-153.79,9.04V13.71s71.4,7.04,154.39,7.65c83,.61,153.79-7.65,153.79-7.65v62.86h0Z"/>
  <path class="st0" d="M66.73,60.3c-.08-.01-.16-.02-.22-.04-.53-.09-.8-.14-1.34-.23-1.74-.48-2.6-2.13-2.6-4.95v-19.99c0-2.58.39-4.24,1.16-4.97.2-.19.81-.46,1.83-.79.8-.26,1.21-.59,1.21-1.01,0-.63-.38-.99-1.07-.99-.17,0-.35.01-.5.02-2.4.1-5.19.06-8.33-.11-1.37-.07-2.79-.25-4.26-.54-.36-.07-.59-.11-.67-.11-.84-.05-1.26.29-1.26,1.02,0,.36.13.68.35.81.42.23,1,.33,1.36.42,1.4.37,2.32.8,2.65,1.06.69.55,1.12,1.41,1.31,2.55.08.47.12,1.44.12,2.92v20.03c0,2.53-.63,4.25-1.78,4.85-.32.16-.72.37-1.12.61-.71.43-1.15.69-1.21.77-.17.21-.27.49-.27.82,0,.61.41.89,1.24.84.74-.04,1.87-.18,3.38-.41,1.51-.23,2.65-.36,3.41-.4.79-.04,1.97-.03,3.54.04s2.74.08,3.52.04c.94-.04,1.41-.43,1.41-1.15,0-.58-.65-.93-1.88-1.1h.02ZM51.5,59.82c-.15,0-.37.03-.66.08s-.51.07-.66.08c-1.24.06-2.46-1.03-3.67-3.3-2.05-3.86-3.08-5.83-5.13-9.82-.61-1.2-1.76-2.2-1.76-2.25,0,0,6.59-4.36,6.59-8.49,0-3.45-1.19-6.07-3.57-7.92-2.04-1.59-4.81-2.52-8.3-2.75-1.04-.07-2.6-.09-4.67-.06s-3.63.01-4.67-.06c-1.73-.12-3.61-.37-5.62-.74-.51-.09-.83-.15-.97-.16-.86-.06-1.29.29-1.29,1.07,0,.66.5,1.13,1.49,1.38h.05s.08.03.12.04c1,.17,1.87.76,2.35,1.33.84,1,1.26,2.99,1.26,5.97v22.43c0,2.65-.69,4.53-2.03,5.52-.4.29-.74.5-.94.63-.65.41-1.04.73-1.14.87-.17.24-.25.55-.25.92,0,.68.4.99,1.21.93.76-.06,1.92-.23,3.47-.51s2.72-.44,3.49-.5c.68-.05,1.69-.03,3.05.04,1.35.07,2.37.08,3.05.04.81-.06,1.21-.49,1.21-1.29,0-.61-.82-.87-1.44-1.2,0,0-.03-.02-.05-.02s-.06,0-.13-.02c-.51-.11-.88-.23-1.11-.34-1.5-.74-2.25-2.57-2.25-5.47v-8.23c0-.8.18-1.37.52-1.64.28-.22.84-.33,1.61-.33,1.82,0,3.06.3,3.72.93.56.53,1.75,2.83,3.52,6.78.13.3.22.51.27.62,1.21,2.78,2.39,4.8,3.27,5.97,1.68,2.25,3.47,3.29,5.35,3.18.98-.06,2.05-.33,3.2-.82,1.47-.63,2.21-1.36,2.21-2.17,0-.49-.24-.72-.72-.7l.02-.02ZM37.98,42.41c-1.12.8-2.92,1.2-5.4,1.19-1.52,0-2.45-.08-2.8-.23-.74-.31-1.11-1.13-1.11-2.46v-9.02c0-1.58.17-2.67.5-3.25.43-.77,1.3-1.12,2.6-1.04,2.63.16,4.68,1.13,6.14,2.87,1.42,1.7,2.13,3.95,2.13,6.75,0,2.47-.69,4.2-2.06,5.19ZM166.2,57.27c-.15,0-.37.01-.66.04-.29.03-.51.04-.66.04-1.24,0-2.46-.94-3.67-2.83-2.05-3.21-3.08-4.82-5.13-8.03-.61-.97-1.76-1.77-1.76-1.81,0,0,6.6-3.55,6.6-6.92,0-2.81-1.19-4.91-3.57-6.3-2.05-1.19-4.82-1.8-8.31-1.82-1.04,0-2.6.05-4.68.16-2.07.12-3.63.17-4.67.15-1.73-.02-3.61-.13-5.63-.33-.51-.05-.84-.08-.97-.08-.86-.01-1.29.27-1.29.85,0,.5.5.82,1.49.98h.05s.08.02.12.02c1.01.1,1.88.51,2.36.92.84.73,1.27,2.22,1.27,4.49v17.02c0,2.01-.69,3.42-2.04,4.11-.4.21-.73.34-.94.43-.65.28-1.04.51-1.14.61-.17.17-.25.4-.25.68,0,.51.4.76,1.22.75.76-.01,1.92-.09,3.47-.24s2.72-.22,3.5-.23c.68,0,1.69.05,3.05.16,1.35.11,2.37.17,3.05.16.81,0,1.22-.33,1.22-.95,0-.48-.77-.68-1.44-1,0,0-.03-.02-.05-.02s-.06,0-.12-.02c-.51-.11-.88-.21-1.12-.31-1.5-.63-2.25-2.07-2.25-4.31v-6.35c0-.62.18-1.06.52-1.27.28-.17.83-.25,1.61-.25,1.82,0,3.06.24,3.72.73.56.42,1.75,2.23,3.52,5.4.13.24.22.41.27.51,1.21,2.24,2.4,3.89,3.27,4.86,1.68,1.87,3.47,2.81,5.36,2.8.97,0,2.05-.17,3.2-.52,1.47-.45,2.21-1.02,2.21-1.69,0-.41-.24-.61-.72-.61v.02ZM152.66,42.94c-1.12.65-2.93.96-5.41.96-1.52,0-2.45-.06-2.8-.17-.74-.24-1.12-.87-1.12-1.9v-6.96c0-1.22.17-2.07.5-2.53.43-.61,1.3-.92,2.6-.91,2.63.02,4.69.69,6.15,2.03,1.42,1.3,2.13,3.08,2.13,5.32,0,1.97-.69,3.37-2.06,4.16h0ZM300.48,28.71c-3.48-2.53-8.2-3.51-14.14-3.12-.83.05-2.12.19-3.84.43-.21.03-.37.05-.45.06-2.69.28-4.88.63-6.27.71-.58.03-1.45.03-2.61-.01-1.16-.04-2.04-.05-2.62-.02-.97.05-1.46.44-1.46,1.16,0,.47.47.81,1.41,1.01,1.33.29,2.03.45,2.08.48.9.53,1.58,1.24,1.88,2.18.19.6.3,1.62.3,3.05v21.55c0,1.21-.15,2.17-.45,2.87-.32.75-.83,1.28-1.51,1.58-.37.17-.55.25-.92.41h-.03c-.69.3-1.13.63-1.31.99-.14-.44-.66-.74-1.1-1.04-.02-.01-.03-.03-.04-.03s-.05,0-.11-.03c-.25-.08-.45-.15-.59-.2-1.28-.51-2.3-1.66-3.02-3.4-4.23-9.93-8.55-19.81-12.96-29.67-.25-.56-.57-.84-.97-.82-.33.02-.59.24-.79.68-4.15,9.16-8.42,18.26-12.79,27.31-1.11,2.31-2.16,3.74-3.15,4.29-.18.1-.52.24-1.01.4-.75.25-1.12.59-1.12,1.01,0,.62.37.95,1.12.98.59-.05.89-.08,1.49-.13.97-.08,1.95-.11,2.92-.07.74.03,1.84.15,3.3.36,1.45.22,2.54.34,3.25.37.78.03,1.17-.29,1.17-.96,0-.49-.69-.98-1.79-1.12-.12-.02-.22-.04-.25-.06-1.5-.82-3.49-1.44-3.49-2.82,0-.39.13-.92.39-1.61.55-1.43.83-2.15,1.39-3.6.36-.93.85-1.54,1.44-1.78.42-.17,1.26-.24,2.5-.23,2.86.04,4.29.06,7.15.09,1.09.02,1.85.14,2.27.39s.83.84,1.23,1.79c.57,1.35.86,2.03,1.44,3.38.34.78.51,1.52.51,2.19,0,1.24-.78,2.12-2.35,2.63-.06.02-.09.04-.15.07-.76.33-1.14.66-1.14.98,0,.69.27,1.04.82,1.07.13,0,.37,0,.72-.03,2-.15,3.91-.18,5.73-.09.79.04,1.98.18,3.56.41,1.59.23,2.78.38,3.57.42.43.02.7-.13.83-.45.12.5.5.81,1.06.79.15,0,.31-.04.42-.05,2.17-.22,4.71-.29,7.55-.12.73.04,1.83.16,3.3.36s2.57.32,3.29.37c5.79.37,10.64-1.24,14.49-5.12,3.93-3.96,5.9-9.39,5.9-16.01s-2.01-11.32-6.04-14.25v.02ZM253.05,47.54c-2.34-.02-3.51-.02-5.85-.04-1.52,0-2.28-.26-2.28-.74,0-.28.12-.68.35-1.19,1.52-3.39,2.29-5.1,3.81-8.55.21-.48.47-.72.76-.73.23,0,.48.29.74.89,1.44,3.28,2.16,4.93,3.6,8.27.31.69.47,1.18.47,1.46,0,.43-.54.64-1.61.63h0ZM296.74,57.27c-2.43,3.19-5.79,4.6-10.08,4.36-2.45-.14-4.08-.88-4.86-2.2-.6-1.01-.89-2.93-.89-5.75v-20.32c0-2.05.32-3.41.97-4.07.64-.67,1.95-1.06,3.91-1.17,4.46-.25,8.01,1.28,10.65,4.73,2.46,3.21,3.69,7.43,3.69,12.55s-1.13,8.91-3.39,11.87h0ZM131.57,52.35c-.16,0-.68.46-1.51,1.38-.94,1.04-1.51,1.64-1.69,1.77-2.33,1.69-5.34,2.62-9.03,2.69-1.79.03-2.95-.24-3.45-.8-.41-.47-.62-1.56-.62-3.23v-6.94c0-.92.1-1.54.3-1.85.28-.43.91-.65,1.83-.65h1.99c1.39,0,2.42.13,3.1.37.94.33,1.62.98,2.03,1.93.13.3.25.74.35,1.33.13.77.47,1.16,1.02,1.16.58,0,.87-.28.87-.84,0-.11-.02-.37-.07-.77-.21-1.73-.32-3.37-.32-4.93,0-1.07.07-2.06.15-2.93.02-.21.04-.36.05-.41.07-.52-.27-.92-.82-.93-.51,0-.98.42-1.41,1.26-.29.57-.56.99-.77,1.24-.85,1-2.36,1.5-4.46,1.49h-1.64c-1.45,0-2.18-.63-2.18-1.88v-6.96c0-1.06.41-1.77,1.21-2.13.58-.26,1.55-.38,2.9-.35,2.1.04,3.68.17,4.73.39,1.88.39,3.14,1.14,3.75,2.24.18.33.31.84.38,1.52s.39,1.03.93,1.03.82-.29.82-.87v-.45c-.02-1.37-.05-2.48-.05-3.29v-.92c0-.7-.14-1.16-.4-1.34-.22-.15-.78-.23-1.64-.24-2.1.04-3.16.06-5.26.1-3.19.05-6.23.04-9.13-.03-2.74-.07-5.46-.23-8.08-.55-.3-.03-.53-.06-.7-.06-.45-.01-.78.06-1,.22-.16-.17-.41-.26-.77-.27-.26,0-.61.04-.99.09-.11.01-.25.02-.4.03-1.23.1-2.2.19-2.83.17-.96-.03-2.29-.11-3.77-.39-.07-.01-.16-.04-.25-.05-.21-.02-.58-.04-1.03-.1s-.8-.09-1.03-.1c-.76-.03-1.14.27-1.14.89,0,.47.52.82,1.56,1.03.46.09.77.16.92.21,1.78.55,2.75,1.66,2.75,3.41,0,1.14-.31,2.34-.94,3.62-2.9,5.9-4.35,8.89-7.26,14.99-.23.48-.47.72-.72.72s-.5-.29-.77-.89c-3-6.65-4.5-10.02-7.51-16.92-.52-1.17-.79-2.09-.79-2.74,0-1.2.62-2.03,1.86-2.52.19-.07.28-.1.47-.17.89-.32,1.34-.69,1.34-1.13,0-.6-.31-.91-.92-.94-.08,0-.21,0-.39.02-.17.02-.31.02-.38.03-1.54.05-3.51.21-5.58.12-1.88-.08-3.64-.26-5.26-.52-.94-.16-1.59-.24-1.96-.26-.71-.03-1.06.25-1.06.84,0,.55.5,1.01,1.49,1.35.38.13.65.23.82.3,1.08.45,2,1.5,2.73,3.14,4.25,9.57,8.54,19.12,12.99,28.6.25.53.57.78.97.77.31-.01.58-.23.79-.65,4.47-9.42,8.98-18.82,13.64-28.16.36-.72.73-1.34,1.09-1.84.34-.47.74-.79,1.19-.95.46-.17.79-.36,1.01-.58.24.26.67.45,1.35.58h.05c1.27.18,2.21.52,2.8,1.02.91.76,1.36,2.32,1.36,4.67v17.64c0,2.08-.69,3.55-2.03,4.29-.4.22-.73.37-.94.46-.65.3-1.04.54-1.14.65-.17.18-.25.42-.25.71,0,.53.41.79,1.21.76,1.11-.11,1.67-.17,2.78-.28,1.78-.18,3.54-.29,5.26-.33,1.06-.03,2.64,0,4.75.09,2.11.08,3.69.12,4.75.09,3.11-.06,5.33-.92,6.67-2.57s2.01-3.25,2.01-4.82c0-.58-.24-.87-.72-.87h.04ZM232.44,52.85c-.17,0-.68.48-1.51,1.43-.94,1.07-1.51,1.69-1.69,1.82-2.33,1.71-5.34,2.54-9.02,2.44-1.79-.05-2.95-.37-3.45-.97-.41-.5-.62-1.61-.62-3.3v-7.03c0-.92.1-1.56.3-1.87.28-.44.91-.66,1.83-.66h1.98c1.39,0,2.42.13,3.1.38.94.35,1.62,1.02,2.03,2.02.13.31.25.78.35,1.39.13.81.47,1.22,1.02,1.22.58,0,.87-.29.87-.87,0-.12-.02-.39-.07-.81-.22-1.82-.32-3.54-.32-5.18,0-1.13.07-2.17.15-3.09.02-.22.04-.38.05-.43.08-.55-.28-.96-.82-.96-.51,0-.98.46-1.41,1.34-.29.6-.55,1.04-.77,1.31-.85,1.05-2.36,1.58-4.46,1.58h-1.64c-1.45,0-2.18-.62-2.18-1.88v-7.05c0-1.07.41-1.81,1.21-2.21.58-.29,1.55-.46,2.9-.49,2.1-.05,3.68,0,4.73.18,1.89.32,3.13,1.05,3.74,2.19.18.34.31.87.38,1.6.08.72.39,1.08.93,1.07.55,0,.82-.33.82-.95v-.48c-.02-1.46-.05-2.64-.05-3.49v-.98c0-.75-.14-1.23-.4-1.4-.22-.15-.78-.2-1.63-.17-2.1.15-3.15.23-5.26.38-3.19.22-6.23.37-9.13.44-2.74.07-5.46.05-8.08-.13-.3-.02-.53-.03-.69-.03-.57.01-.93.17-1.13.43-.14-.26-.42-.4-.86-.39-.08,0-.41.03-.99.1-2.15.24-4.23.37-6.22.41-.73.01-1.82-.03-3.27-.13s-2.55-.14-3.27-.13c-.88.01-1.31.32-1.31.93,0,.48.52.79,1.56.93h.05c1.24.13,2.16.42,2.75.88.95.73,1.44,2.22,1.44,4.49v4.51c0,.15-.04.26-.06.38v.23h-17.25v-4.14h.03v-1.67c0-1.22.1-2.08.3-2.58.35-.88,1.19-1.55,2.53-2.01.08-.03.14-.05.17-.07.75-.3,1.16-.61,1.16-.96,0-.55-.32-.82-.96-.81-.08,0-.41.03-.99.08-2.13.21-4.21.32-6.22.33-.74,0-1.85-.05-3.31-.16-1.46-.11-2.56-.17-3.29-.17-.88,0-1.31.3-1.31.9,0,.48.52.79,1.56.94h.05c1.27.14,2.21.43,2.8.89.91.71,1.36,2.19,1.36,4.43v16.87c0,1.99-.69,3.38-2.03,4.05-.4.2-.73.33-.94.42-.65.27-1.04.49-1.14.59-.17.16-.25.39-.25.67,0,.5.41.76,1.21.76s1.94-.06,3.48-.18c1.55-.12,2.71-.17,3.48-.17s1.98.08,3.55.22,2.75.22,3.52.22c.84,0,1.26-.29,1.26-.89,0-.56-.68-1.01-1.84-1.1-.03,0-.08-.01-.15-.02-.59-.12-1.03-.23-1.32-.33-1.8-.65-2.7-2.09-2.7-4.34v-4.62h-.03v-3.38h17.25v.31c.03.12.06.24.06.38v7.56c0,2.02-.7,3.42-2.06,4.09-.4.2-.73.33-.94.41-.65.27-1.04.48-1.14.58-.17.17-.25.39-.25.68,0,.51.41.77,1.24.78.76.01,1.91-.03,3.46-.14,1.55-.1,2.71-.14,3.49-.13.73.01,1.81.1,3.26.25,1.44.16,2.52.25,3.24.26.6.01.97-.16,1.13-.51.12.35.5.54,1.16.56,1.11-.05,1.67-.08,2.78-.13,1.79-.09,3.54-.11,5.26-.06,1.06.03,2.64.14,4.75.33,2.11.2,3.69.31,4.75.35,3.11.1,5.33-.68,6.67-2.38s2.01-3.39,2.01-5.07c0-.62-.24-.94-.72-.95v.06ZM210.11,54.09c0,2.06-.69,3.5-2.03,4.17-.4.2-.74.33-.94.42-.65.27-1.04.48-1.14.58-.08.07-.13.17-.17.26-.17-.35-.74-.59-1.48-.84-.03,0-.07-.02-.1-.02-.59-.07-1.09-.26-1.34-.37-1.63-.7-2.45-2.2-2.45-4.45v-17.55c0-1.15.04-1.93.12-2.34.17-.83.61-1.51,1.27-2.04.33-.26.82-.5,1.39-.74.1-.04.18-.07.22-.09.53-.2.87-.39.99-.5,0,0,0-.02.02-.03.21.28.68.48,1.43.57h.05c1.27.12,2.21.41,2.8.88.91.72,1.36,2.25,1.36,4.58v17.51h0Z"/>
</svg>