<?xml version="1.0" encoding="UTF-8"?>
<svg id="Capa_1" xmlns="http://www.w3.org/2000/svg" version="1.1" viewBox="0 0 215.4 49.96">
  <!-- Generator: Adobe Illustrator 29.4.0, SVG Export Plug-In . SVG Version: 2.1.0 Build 152)  -->
  <defs>
    <style>
      .st0 {
        fill: #fff;
      }
    </style>
  </defs>
  <path class="st0" d="M212.62,2.32c-.48.06-48.85,5.62-104.7,5.21C52.04,7.12,3.25,2.36,2.76,2.32c-.35-.03-.69.08-.95.31-.26.24-.41.57-.41.92v42.86c0,.37.16.71.44.95.28.23.65.33,1.01.27.37-.07,37.73-6.56,104.63-6.15,66.93.41,104.71,6.09,105.09,6.15.36.06.72-.05.99-.28.28-.24.43-.58.43-.94V3.55c0-.35-.15-.69-.41-.92-.26-.23-.62-.35-.96-.3h0ZM3.88,4.91c8.28.77,53.23,4.72,104.02,5.1,50.76.37,95.35-4.17,103.62-5.07v40.05c-7.43-1.02-44.07-5.61-104.02-5.98-59.86-.37-96.17,4.78-103.63,5.95V4.91h0Z"/>
  <path class="st0" d="M43.42,35.43c-.06,0-.11-.02-.15-.03-.36-.06-.55-.09-.91-.16-1.18-.32-1.77-1.45-1.77-3.38v-13.63c0-1.76.26-2.89.79-3.39.13-.13.56-.32,1.25-.54.54-.18.83-.4.83-.69,0-.43-.26-.67-.73-.68-.12,0-.24,0-.34,0-1.64.07-3.54.04-5.68-.07-.94-.05-1.91-.17-2.91-.37-.25-.05-.4-.07-.46-.08-.57-.03-.86.2-.86.69,0,.24.09.47.24.55.28.16.68.22.93.29.95.25,1.58.54,1.81.72.47.38.77.96.9,1.74.05.32.08.98.08,1.99v13.66c0,1.72-.43,2.9-1.22,3.3-.22.11-.49.25-.76.41-.48.29-.78.47-.83.52-.12.14-.19.33-.19.56,0,.41.28.6.84.57.51-.03,1.28-.12,2.31-.28s1.8-.25,2.32-.27c.54-.03,1.35-.02,2.42.03s1.87.06,2.4.03c.64-.03.96-.29.96-.79,0-.39-.44-.63-1.28-.75v.04ZM33.04,35.1c-.1,0-.25.02-.45.05s-.35.05-.45.06c-.84.04-1.68-.7-2.5-2.25-1.4-2.64-2.1-3.97-3.5-6.7-.42-.82-1.2-1.5-1.2-1.54,0,0,4.49-2.97,4.49-5.79,0-2.35-.81-4.14-2.43-5.4-1.39-1.08-3.28-1.72-5.66-1.87-.71-.05-1.77-.06-3.18-.04-1.41.02-2.47,0-3.18-.04-1.18-.08-2.46-.25-3.83-.5-.35-.06-.57-.1-.66-.11-.59-.04-.88.2-.88.73,0,.45.34.77,1.01.94h.03s.06.02.08.02c.68.12,1.28.52,1.6.91.57.69.86,2.04.86,4.07v15.29c0,1.8-.47,3.09-1.38,3.76-.27.2-.5.34-.64.43-.45.28-.71.5-.78.59-.11.16-.17.37-.17.63,0,.46.28.68.83.64.52-.04,1.31-.15,2.36-.34,1.06-.19,1.85-.3,2.38-.34.46-.03,1.15-.02,2.08.03.92.05,1.61.06,2.08.03.55-.04.83-.33.83-.88,0-.41-.56-.6-.98-.82,0,0-.02-.02-.03-.02s-.04,0-.09,0c-.35-.08-.6-.16-.76-.23-1.02-.51-1.54-1.76-1.54-3.73v-5.61c0-.55.12-.93.35-1.12.19-.15.57-.23,1.1-.23,1.24,0,2.09.21,2.53.63.38.36,1.19,1.93,2.4,4.62.09.2.15.35.19.43.82,1.89,1.63,3.27,2.23,4.07,1.15,1.53,2.37,2.24,3.65,2.17.66-.04,1.4-.23,2.18-.56,1-.43,1.5-.93,1.5-1.48,0-.33-.16-.49-.49-.48h.02ZM23.82,23.23c-.76.55-1.99.82-3.68.81-1.04,0-1.67-.06-1.91-.16-.51-.21-.76-.77-.76-1.68v-6.15c0-1.08.12-1.82.34-2.22.29-.53.88-.77,1.77-.71,1.79.11,3.19.77,4.19,1.96.97,1.16,1.45,2.69,1.45,4.61,0,1.68-.47,2.86-1.4,3.54ZM111.24,33.36c-.1,0-.25,0-.45.03-.2.02-.35.03-.45.03-.85,0-1.68-.64-2.5-1.93-1.4-2.19-2.1-3.28-3.5-5.48-.42-.66-1.2-1.21-1.2-1.23,0,0,4.5-2.42,4.5-4.72,0-1.92-.81-3.35-2.43-4.29-1.4-.81-3.29-1.23-5.66-1.24-.71,0-1.77.03-3.19.11-1.41.08-2.48.11-3.19.1-1.18,0-2.46-.09-3.84-.22-.35-.03-.57-.05-.66-.05-.59,0-.88.19-.88.58,0,.34.34.56,1.01.67h.04s.05,0,.08,0c.69.07,1.28.34,1.61.63.57.5.86,1.52.86,3.06v11.6c0,1.37-.47,2.33-1.39,2.8-.27.14-.5.23-.64.3-.44.19-.71.35-.78.42-.11.12-.17.27-.17.46,0,.35.28.52.83.51.52,0,1.31-.06,2.37-.16,1.06-.1,1.85-.15,2.38-.16.46,0,1.16.03,2.08.11s1.62.12,2.08.11c.55,0,.83-.22.83-.65,0-.33-.53-.47-.98-.68,0,0-.02-.02-.03-.02s-.04,0-.08,0c-.35-.07-.6-.14-.76-.21-1.03-.43-1.54-1.41-1.54-2.94v-4.33c0-.42.12-.72.35-.86.19-.12.57-.17,1.1-.17,1.24,0,2.09.17,2.54.5.38.28,1.2,1.52,2.4,3.68.09.16.15.28.19.34.83,1.53,1.63,2.65,2.23,3.31,1.15,1.28,2.37,1.91,3.65,1.91.66,0,1.4-.12,2.18-.36,1-.31,1.51-.7,1.51-1.16,0-.28-.16-.42-.49-.42v.02ZM102.01,23.59c-.76.44-2,.66-3.69.66-1.04,0-1.67-.04-1.91-.11-.51-.16-.76-.6-.76-1.3v-4.75c0-.83.12-1.41.34-1.72.29-.41.88-.63,1.78-.62,1.79,0,3.2.47,4.19,1.38.97.89,1.45,2.1,1.45,3.63,0,1.35-.47,2.29-1.4,2.83h0ZM202.79,13.89c-2.37-1.72-5.59-2.39-9.64-2.13-.56.04-1.44.13-2.62.29-.15.02-.25.03-.3.04-1.84.19-3.33.43-4.27.48-.39.02-.99.02-1.78,0s-1.39-.03-1.78,0c-.66.04-1,.3-1,.79,0,.32.32.55.96.69.91.2,1.39.31,1.42.33.62.36,1.08.85,1.28,1.48.13.41.2,1.11.2,2.08v14.7c0,.82-.1,1.48-.3,1.95-.22.51-.57.87-1.03,1.08-.25.11-.37.17-.63.28h-.02c-.47.2-.77.43-.89.68-.09-.3-.45-.51-.75-.71,0,0-.02-.02-.03-.02,0,0-.03,0-.08-.02-.17-.05-.3-.1-.4-.14-.87-.35-1.57-1.13-2.06-2.32-2.89-6.77-5.83-13.51-8.84-20.23-.17-.38-.39-.57-.66-.56-.22,0-.41.17-.54.46-2.83,6.24-5.74,12.45-8.72,18.62-.75,1.57-1.47,2.55-2.15,2.93-.12.07-.35.16-.69.27-.51.17-.76.4-.76.69,0,.42.25.65.76.67.4-.03.61-.05,1.01-.09.66-.06,1.33-.07,1.99-.05.51.02,1.26.1,2.25.25s1.73.23,2.21.25c.53.02.8-.2.8-.66,0-.33-.47-.67-1.22-.77-.08,0-.15-.03-.17-.04-1.02-.56-2.38-.98-2.38-1.92,0-.26.09-.63.27-1.1.38-.98.57-1.47.95-2.45.25-.63.58-1.05.98-1.21.29-.12.86-.16,1.71-.15,1.95.03,2.93.04,4.88.06.74,0,1.26.1,1.55.27.29.17.57.58.84,1.22.39.92.59,1.38.98,2.31.23.53.35,1.03.35,1.49,0,.84-.53,1.44-1.6,1.79-.04.02-.06.03-.1.05-.52.23-.78.45-.78.67,0,.47.19.71.56.73.09,0,.25,0,.49-.02,1.36-.1,2.66-.12,3.9-.06.54.03,1.35.12,2.43.28,1.08.16,1.89.26,2.43.29.29.02.48-.09.57-.31.08.34.34.55.72.54.1,0,.21-.03.29-.03,1.48-.15,3.21-.2,5.15-.08.5.03,1.25.11,2.25.24s1.75.22,2.25.25c3.95.25,7.25-.85,9.88-3.49,2.68-2.7,4.02-6.4,4.02-10.92s-1.37-7.72-4.12-9.71h-.02ZM170.46,26.73c-1.6,0-2.39-.02-3.99-.03-1.04,0-1.56-.17-1.56-.51,0-.19.08-.46.24-.81,1.04-2.31,1.56-3.47,2.6-5.83.15-.33.32-.49.52-.5.16,0,.33.2.51.61.98,2.23,1.47,3.36,2.46,5.64.21.47.32.8.32,1,0,.29-.37.44-1.1.43h0ZM200.25,33.36c-1.66,2.17-3.95,3.14-6.87,2.97-1.67-.09-2.78-.6-3.31-1.5-.41-.69-.61-2-.61-3.92v-13.85c0-1.4.22-2.32.66-2.78s1.33-.72,2.67-.8c3.04-.17,5.46.87,7.26,3.22,1.67,2.19,2.52,5.07,2.52,8.56s-.77,6.08-2.31,8.09h-.01ZM87.63,30c-.11,0-.46.31-1.03.94-.64.71-1.03,1.12-1.15,1.21-1.59,1.16-3.64,1.79-6.16,1.84-1.22.02-2.01-.16-2.35-.55-.28-.32-.42-1.06-.42-2.2v-4.73c0-.62.07-1.05.2-1.26.19-.29.62-.44,1.25-.44h1.35c.95,0,1.65.09,2.11.25.64.23,1.1.67,1.39,1.32.09.2.17.51.24.91.09.53.32.79.69.79.39,0,.59-.19.59-.57,0-.08-.02-.25-.05-.52-.15-1.18-.22-2.3-.22-3.36,0-.73.05-1.41.1-2,.01-.14.03-.24.04-.28.05-.36-.19-.63-.56-.63-.35,0-.67.29-.96.86-.2.39-.38.68-.53.85-.58.68-1.61,1.02-3.04,1.02h-1.12c-.99,0-1.49-.43-1.49-1.28v-4.74c0-.72.28-1.21.83-1.45.39-.18,1.06-.26,1.98-.24,1.43.03,2.51.11,3.23.26,1.28.27,2.14.77,2.55,1.53.12.23.21.57.26,1.04s.26.7.63.7.56-.19.56-.59v-.31c-.01-.94-.03-1.69-.03-2.24v-.63c0-.48-.09-.79-.27-.91-.15-.1-.53-.16-1.12-.17-1.43.03-2.15.04-3.58.07-2.18.04-4.25.03-6.22-.02-1.87-.05-3.72-.16-5.51-.37-.2-.02-.36-.04-.47-.04-.31,0-.53.04-.68.15-.11-.11-.28-.18-.52-.19-.18,0-.42.03-.68.06-.08,0-.17,0-.27.02-.84.07-1.5.13-1.93.12-.65-.02-1.56-.07-2.57-.27-.04,0-.11-.03-.17-.03-.15,0-.39-.03-.7-.07s-.54-.06-.7-.07c-.52-.02-.78.18-.78.61,0,.32.36.56,1.06.7.31.06.53.11.63.14,1.22.38,1.88,1.13,1.88,2.32,0,.78-.21,1.6-.64,2.47-1.98,4.02-2.97,6.06-4.95,10.22-.16.32-.32.49-.49.49s-.34-.2-.52-.6c-2.05-4.53-3.07-6.83-5.12-11.53-.36-.8-.54-1.43-.54-1.87,0-.82.42-1.39,1.27-1.71.13-.05.19-.07.32-.12.61-.22.91-.47.91-.77,0-.41-.21-.62-.63-.64-.06,0-.14,0-.26.02-.12,0-.21.02-.26.02-1.05.03-2.39.14-3.8.08-1.28-.06-2.48-.17-3.58-.36-.64-.11-1.09-.17-1.33-.18-.48-.02-.73.17-.73.57,0,.37.34.69,1.01.92.26.09.44.16.56.2.74.31,1.36,1.02,1.86,2.14,2.9,6.53,5.82,13.04,8.86,19.5.17.36.39.53.66.52.21,0,.39-.16.54-.45,3.05-6.42,6.12-12.83,9.3-19.2.25-.49.49-.92.74-1.26.23-.32.51-.54.81-.65.31-.12.54-.25.69-.39.16.17.46.31.92.39h.03c.87.12,1.51.35,1.91.69.62.52.93,1.58.93,3.18v12.03c0,1.42-.47,2.42-1.39,2.92-.27.15-.5.25-.64.32-.44.21-.71.37-.78.44-.11.12-.17.28-.17.49,0,.36.28.54.83.52.76-.08,1.14-.11,1.89-.19,1.22-.12,2.41-.2,3.58-.23.72-.02,1.8,0,3.24.06,1.44.06,2.52.08,3.24.06,2.12-.04,3.64-.63,4.55-1.75.91-1.13,1.37-2.22,1.37-3.28,0-.4-.16-.59-.49-.59v-.03ZM156.41,30.35c-.11,0-.46.33-1.03.97-.64.73-1.03,1.15-1.15,1.24-1.59,1.17-3.64,1.73-6.15,1.66-1.22-.03-2.01-.25-2.35-.66-.28-.34-.42-1.1-.42-2.25v-4.79c0-.63.07-1.06.2-1.28.19-.3.62-.45,1.25-.45h1.35c.95,0,1.65.09,2.11.26.64.24,1.1.7,1.39,1.38.09.21.17.53.24.95.09.55.32.83.69.83.39,0,.59-.19.59-.59,0-.08-.02-.27-.05-.55-.15-1.24-.22-2.42-.22-3.53,0-.77.05-1.48.1-2.1,0-.15.03-.26.04-.29.05-.37-.19-.66-.56-.65-.35,0-.67.31-.96.92-.2.41-.38.71-.52.89-.58.71-1.61,1.07-3.04,1.08h-1.12c-.99,0-1.49-.42-1.49-1.28v-4.81c0-.73.28-1.23.83-1.51.39-.2,1.05-.31,1.98-.34,1.43-.04,2.51,0,3.23.12,1.29.22,2.14.72,2.55,1.5.12.23.21.6.26,1.09.05.49.26.73.63.73s.56-.22.56-.65v-.33c0-.99-.03-1.8-.03-2.38v-.67c0-.51-.09-.84-.27-.96-.15-.1-.53-.14-1.11-.12-1.43.11-2.15.16-3.58.26-2.18.15-4.25.25-6.22.3-1.87.05-3.72.03-5.51-.09-.2,0-.36-.02-.47-.02-.39,0-.63.11-.77.29-.09-.18-.28-.27-.58-.26-.06,0-.28.02-.68.07-1.46.16-2.88.26-4.24.28-.5,0-1.24-.02-2.23-.09-.99-.06-1.74-.1-2.23-.09-.6,0-.9.22-.9.64,0,.33.36.54,1.07.64h.03c.85.09,1.47.29,1.88.6.65.5.98,1.52.98,3.06v3.07c0,.1-.02.18-.04.26v.16h-11.76v-2.82h.02v-1.14c0-.83.07-1.42.2-1.76.24-.6.81-1.06,1.72-1.37.06-.02.1-.04.12-.05.51-.2.79-.41.79-.65,0-.37-.22-.56-.66-.55-.06,0-.28.02-.68.06-1.45.14-2.87.22-4.24.23-.51,0-1.26-.03-2.26-.11s-1.74-.12-2.24-.12c-.6,0-.9.21-.9.62,0,.32.35.54,1.06.64h.03c.87.09,1.51.3,1.91.61.62.48.93,1.49.93,3.02v11.5c0,1.36-.47,2.3-1.39,2.76-.27.14-.5.23-.64.28-.44.18-.71.33-.78.4-.11.11-.17.27-.17.46,0,.34.28.52.83.52s1.32-.04,2.38-.12c1.05-.08,1.85-.12,2.38-.12s1.35.05,2.42.15c1.07.1,1.87.15,2.4.15.58,0,.86-.2.86-.61,0-.38-.47-.69-1.25-.75-.02,0-.06,0-.1-.02-.4-.08-.7-.16-.9-.22-1.23-.44-1.84-1.42-1.84-2.96v-3.15h-.02v-2.31h11.76v.21c.02.08.04.16.04.26v5.15c0,1.38-.48,2.33-1.4,2.79-.27.14-.5.23-.64.28-.45.18-.71.33-.78.4-.11.11-.17.27-.17.46,0,.35.28.53.84.53.52,0,1.31-.02,2.36-.09s1.85-.1,2.38-.09c.5,0,1.24.07,2.22.17.98.11,1.72.17,2.21.18.41,0,.66-.11.77-.35.08.24.34.37.79.38.76-.04,1.14-.05,1.89-.09,1.22-.06,2.41-.07,3.58-.04.72.02,1.8.1,3.24.23s2.52.21,3.24.24c2.12.07,3.63-.46,4.55-1.62.91-1.16,1.37-2.31,1.37-3.45,0-.43-.16-.64-.49-.65l-.02.02ZM141.18,31.19c0,1.41-.47,2.39-1.39,2.84-.27.14-.5.23-.64.28-.45.18-.71.33-.78.4-.05.05-.09.11-.11.18-.12-.24-.5-.4-1.01-.57-.02,0-.05,0-.07-.02-.4-.05-.75-.18-.91-.25-1.11-.48-1.67-1.5-1.67-3.03v-11.96c0-.78.03-1.32.08-1.6.12-.56.41-1.03.86-1.39.23-.18.56-.34.95-.5.07-.03.12-.05.15-.06.36-.13.6-.27.68-.34,0,0,0,0,0-.02.14.19.46.32.97.39h.03c.87.08,1.51.28,1.91.6.62.49.93,1.53.93,3.12v11.94h.01Z"/>
</svg>